<?xml version="1.0" encoding="utf-8"?>
<!-- Generator: Adobe Illustrator 27.0.1, SVG Export Plug-In . SVG Version: 6.00 Build 0)  -->
<svg version="1.1" xmlns="http://www.w3.org/2000/svg" xmlns:xlink="http://www.w3.org/1999/xlink" x="0px" y="0px"
	 viewBox="0 0 34 34" style="enable-background:new 0 0 34 34;" xml:space="preserve">
<style type="text/css">
	.st0{fill:#231F20;}
	.st1{fill:#FFFFFF;}
</style>
<g id="black">
	<rect x="-0.1" y="-0.2" class="st0" width="34.3" height="34.3"/>
</g>
<g id="Layer_1">
	<path class="st1" d="M1.8,25.3H27c2.9,0,5.2-2.2,5.2-5c0-2.7-2.5-4.9-5.1-4.9H6.9c-1.3,0-2.4-1-2.4-2.3c0-1.3,1.1-2.2,2.2-2.2
		c0,0,0.1,0,0.1,0h25.2V8.3H7c-2.7,0-5.1,2.1-5.1,4.9v0.1c0,2.8,2.6,4.9,5.1,4.9h20.1c1.3,0,2.3,1,2.3,2.2c0,1.2-1,2.3-2.4,2.3H1.8
		L1.8,25.3z"/>
</g>
</svg>
